<?xml version="1.0" encoding="utf-8"?>
<svg id="master-artboard" viewBox="0 0 338.5467834472656 344.0702209472656" version="1.1" xmlns="http://www.w3.org/2000/svg" x="0px" y="0px" style="enable-background:new 0 0 1400 980;" width="338.5467834472656px" height="344.0702209472656px"><rect id="ee-background" x="0" y="0" width="338.5467834472656" height="344.0702209472656" style="fill: white; fill-opacity: 0; pointer-events: none;"/>


<path class="st2" d="M338.5,537.8c-88.1,0-159.4,71.4-159.4,159.4c0,86.8,69.3,157.4,155.6,159.4c1.3,0,2.5,0,3.8,0&#10;&#9;&#9;&#9;c9.3,0,18.5-0.8,27.4-2.4c27.8-4.8,53.2-16.8,74.1-34.1c0.8-0.7,1.6-1.4,2.5-2.1c25.8-22.2,44.4-52.5,51.9-87&#10;&#9;&#9;&#9;c2.4-10.9,3.6-22.3,3.6-33.9C497.9,609.2,426.5,537.8,338.5,537.8z M394.8,804h-40.3h-7.3h-28.9h-2.7h-33.5v-29h4.5h31.7h28.9h7.3&#10;&#9;&#9;&#9;h40.3V804z M360.7,597.6v7.2h7.2v29h-7.2v7.4h-7.2v7h-8.9v93.4h2.7h5.2v-26.5h-5.2v-26.5h36.2v26.5h5.2v26.5h6.2v29h-40.3h-7.3&#10;&#9;&#9;&#9;h-28.9h-36.2v-29h6.2v-26.5h5.2v-26.5h36.2v26.5h-5.2v26.5h8.9v-93.4h-8.9v-7h-7.6v-7.4h-6.8v-29h6.8v-7.2h7.6v-7.2h29v7.2H360.7z&#10;&#9;&#9;&#9;" style="fill: rgb(61, 151, 173);" transform="matrix(1, 0, 0, 1, -169.58132934570312, -520.7523834908901)"/><path d="M 388.70001220703125 711.2000122070312 L 383.5 711.2000122070312 L 383.5 684.7000122070312 L 347.29998779296875 684.7000122070312 L 347.29998779296875 711.2000122070312 L 352.3999938964844 711.2000122070312 L 352.3999938964844 737.7000122070312 L 347.29998779296875 737.7000122070312 L 344.6000061035156 737.7000122070312 L 344.6000061035156 644.2999877929688 L 353.5 644.2999877929688 L 353.5 637.2999877929688 L 360.70001220703125 637.2999877929688 L 360.70001220703125 629.9000244140625 L 367.8999938964844 629.9000244140625 L 367.8999938964844 600.9000244140625 L 360.70001220703125 600.9000244140625 L 360.70001220703125 593.7000122070312 L 353.5 593.7000122070312 L 353.5 586.5 L 324.5 586.5 L 324.5 593.7000122070312 L 316.8999938964844 593.7000122070312 L 316.8999938964844 600.9000244140625 L 310.1000061035156 600.9000244140625 L 310.1000061035156 629.9000244140625 L 316.8999938964844 629.9000244140625 L 316.8999938964844 637.2999877929688 L 324.5 637.2999877929688 L 324.5 644.2999877929688 L 333.3999938964844 644.2999877929688 L 333.3999938964844 737.7000122070312 L 324.5 737.7000122070312 L 324.5 711.2000122070312 L 329.70001220703125 711.2000122070312 L 329.70001220703125 684.7000122070312 L 293.3999938964844 684.7000122070312 L 293.3999938964844 711.2000122070312 L 288.29998779296875 711.2000122070312 L 288.29998779296875 737.7000122070312 L 282.1000061035156 737.7000122070312 L 282.1000061035156 766.7000122070312 L 318.29998779296875 766.7000122070312 L 347.29998779296875 766.7000122070312 L 354.6000061035156 766.7000122070312 L 394.79998779296875 766.7000122070312 L 394.79998779296875 737.7000122070312 L 388.70001220703125 737.7000122070312 Z" class="st1" style="fill: rgb(255, 255, 255);" transform="matrix(1, 0, 0, 1, -169.02833869108542, -517.613458115876)"/><path d="M 347.29998779296875 771.2000122070312 L 318.29998779296875 771.2000122070312 L 286.70001220703125 771.2000122070312 L 282.1000061035156 771.2000122070312 L 282.1000061035156 800.2000122070312 L 315.6000061035156 800.2000122070312 L 318.29998779296875 800.2000122070312 L 347.29998779296875 800.2000122070312 L 354.6000061035156 800.2000122070312 L 394.79998779296875 800.2000122070312 L 394.79998779296875 771.2000122070312 L 354.6000061035156 771.2000122070312 Z" class="st1" style="fill: rgb(255, 255, 255);" transform="matrix(1, 0, 0, 1, -169.58132622590676, -517.1499664987026)"/>
<path d="M 281.4778137207031 110.32633972167969 L 411.80413818359375 38.097286224365234" style="fill: rgb(61, 151, 173); fill-opacity: 1; stroke: rgb(0, 0, 0); stroke-opacity: 1; stroke-width: 0; paint-order: fill;"/></svg>