<?xml version="1.0" encoding="utf-8"?>
<svg id="master-artboard" viewBox="0 0 344.82769775390625 340.9298400878906" version="1.1" xmlns="http://www.w3.org/2000/svg" x="0px" y="0px" style="enable-background:new 0 0 1400 980;" width="344.82769775390625px" height="340.9298400878906px"><rect id="ee-background" x="0" y="0" width="344.82769775390625" height="340.9298400878906" style="fill: white; fill-opacity: 0; pointer-events: none;"/>


<path class="st0" d="M1114.3,715.7h-2.8V713h-11.1v2.8h-2.9v2.8h-2.6v11.1h2.6v2.8h2.9v2.7h11.1v-2.7h2.8v-2.8h2.8v-11.1h-2.8&#10;&#9;&#9;&#9;V715.7z M1112.8,727.9h-3v2.9h-7.7v-2.9h-2.8v-7.7h2.8v-3h7.7v3h3V727.9z" style="fill: rgb(98, 68, 226);" transform="matrix(1, 0, 0, 1, -890.3016357421876, -524.4457397460938)"/><path d="M 1044 733.7999877929688 L 1039.800048828125 733.7999877929688 L 1039.800048828125 718.5999755859375 L 1032.5 718.5999755859375 L 1032.5 733.7999877929688 L 1028.300048828125 733.7999877929688 L 1024.0999755859375 733.7999877929688 L 1017.0999755859375 733.7999877929688 L 1017.0999755859375 741 L 1024.0999755859375 741 L 1028.300048828125 741 L 1032.5 741 L 1032.5 756.7000122070312 L 1039.800048828125 756.7000122070312 L 1039.800048828125 741 L 1044 741 L 1048.199951171875 741 L 1055.199951171875 741 L 1055.199951171875 733.7999877929688 L 1048.199951171875 733.7999877929688 Z" class="st2" style="fill: rgb(123, 80, 255);" transform="matrix(1, 0, 0, 1, -890.3016357421876, -524.4457397460938)"/><path d="M 1109.800048828125 717.2999877929688 L 1102.0999755859375 717.2999877929688 L 1102.0999755859375 720.2000122070312 L 1099.300048828125 720.2000122070312 L 1099.300048828125 727.9000244140625 L 1102.0999755859375 727.9000244140625 L 1102.0999755859375 730.7999877929688 L 1109.800048828125 730.7999877929688 L 1109.800048828125 727.9000244140625 L 1112.800048828125 727.9000244140625 L 1112.800048828125 720.2000122070312 L 1109.800048828125 720.2000122070312 Z" class="st2" style="fill: rgb(123, 80, 255);" transform="matrix(1, 0, 0, 1, -890.3016357421876, -524.4457397460938)"/><path d="M 1094.9000244140625 747.5999755859375 L 1087.199951171875 747.5999755859375 L 1087.199951171875 750.5999755859375 L 1084.4000244140625 750.5999755859375 L 1084.4000244140625 758.2999877929688 L 1087.199951171875 758.2999877929688 L 1087.199951171875 761.2000122070312 L 1094.9000244140625 761.2000122070312 L 1094.9000244140625 758.2999877929688 L 1097.9000244140625 758.2999877929688 L 1097.9000244140625 750.5999755859375 L 1094.9000244140625 750.5999755859375 Z" class="st2" style="fill: rgb(123, 80, 255);" transform="matrix(1, 0, 0, 1, -890.3016357421876, -524.4457397460938)"/><path class="st0" d="M1129.7,598.5h-7.9V590H1005v8.5h-7.9v7.9h-8.6v183.9h8.6v7.2h7.9v7h116.7v-7h7.9v-7.2h8.2V606.4h-8.2V598.5&#10;&#9;&#9;&#9;&#9;z M1124,781.7h-10.1v8.2h-101v-8.2h-10.5V614.3h10.5v-9.8h101v9.8h10.1V781.7z" style="fill: rgb(98, 68, 226);" transform="matrix(1, 0, 0, 1, -890.3016357421876, -524.4457397460938)"/><path class="st0" d="M1112.1,621.9h-3.5v-5.1h-90v5.1h-3.9v3.9h-5.1v57.1h5.1v3.9h3.9v5.1h90v-5.1h3.5v-3.9h5.1v-57.1h-5.1V621.9&#10;&#9;&#9;&#9;&#9;z M1108.2,679h-3.9v3.9h-81.9V679h-3.9v-49.4h3.9v-3.9h81.9v3.9h3.9V679z" style="fill: rgb(98, 68, 226);" transform="matrix(1, 0, 0, 1, -890.3016357421876, -524.4457397460938)"/><path class="st0" d="M1059.6,725.4h-11.3v-11.2h-4.6v-4.3h-15v4.3h-4.6v11.2h-11.3v4.7h-4.3v15h4.3v4.2h11.3V761h4.6v4.3h15V761&#10;&#9;&#9;&#9;&#9;h4.6v-11.7h11.3v-4.2h4.3v-15h-4.3V725.4z M1055.2,741h-7h-4.2h-4.2v15.8h-7.4V741h-4.2h-4.2h-7v-7.1h7h4.2h4.2v-15.3h7.4v15.3&#10;&#9;&#9;&#9;&#9;h4.2h4.2h7V741z" style="fill: rgb(98, 68, 226);" transform="matrix(1, 0, 0, 1, -890.3016357421876, -524.4457397460938)"/><path class="st2" d="M1063.2,537.8c-88.1,0-159.4,71.4-159.4,159.4c0,85.2,66.8,154.8,150.9,159.2c2.8,0.1,5.7,0.2,8.5,0.2&#10;&#9;&#9;&#9;&#9;c88.1,0,159.4-71.4,159.4-159.4c0-2.2-0.1-4.4-0.1-6.5C1219.1,605.7,1149.1,537.8,1063.2,537.8z M1137.8,790.3h-8.2v7.2h-7.9v7&#10;&#9;&#9;&#9;&#9;H1005v-7h-7.9v-7.2h-8.6V606.4h8.6v-7.9h7.9V590h116.7v8.5h7.9v7.9h8.2V790.3z" style="fill: rgb(137, 54, 255); fill-opacity: 0.67;" transform="matrix(1, 0, 0, 1, -890.3016357421876, -524.4457397460938)"/><path class="st2" d="M1113.9,604.5h-101v9.8h-10.5v167.4h10.5v8.2h101v-8.2h10.1V614.3h-10.1V604.5z M1063.9,745.1h-4.3v4.2&#10;&#9;&#9;&#9;&#9;h-11.3V761h-4.6v4.3h-15V761h-4.6v-11.7h-11.3v-4.2h-4.3v-15h4.3v-4.7h11.3v-11.2h4.6v-4.3h15v4.3h4.6v11.2h11.3v4.7h4.3V745.1z&#10;&#9;&#9;&#9;&#9; M1102.2,760h-2.8v2.8h-2.8v2.7h-11.1v-2.7h-2.9V760h-2.6v-11.1h2.6v-2.8h2.9v-2.8h11.1v2.8h2.8v2.8h2.8V760z M1117.1,729.6h-2.8&#10;&#9;&#9;&#9;&#9;v2.8h-2.8v2.7h-11.1v-2.7h-2.9v-2.8h-2.6v-11.1h2.6v-2.8h2.9V713h11.1v2.8h2.8v2.8h2.8V729.6z M1117.2,625.7v57.1h-5.1v3.9h-3.5&#10;&#9;&#9;&#9;&#9;v5.1h-90v-5.1h-3.9v-3.9h-5.1v-57.1h5.1v-3.9h3.9v-5.1h90v5.1h3.5v3.9H1117.2z" style="fill: rgb(166, 110, 245);" transform="matrix(1, 0, 0, 1, -890.3016357421876, -524.4457397460938)"/><path d="M 1104.4000244140625 625.7000122070312 L 1022.5 625.7000122070312 L 1022.5 629.5999755859375 L 1018.5999755859375 629.5999755859375 L 1018.5999755859375 679 L 1022.5 679 L 1022.5 682.7999877929688 L 1104.4000244140625 682.7999877929688 L 1104.4000244140625 679 L 1108.199951171875 679 L 1108.199951171875 629.5999755859375 L 1104.4000244140625 629.5999755859375 Z" class="st2" style="fill: rgb(176, 120, 255);" transform="matrix(1, 0, 0, 1, -890.3016357421876, -524.4457397460938)"/><path class="st1" d="M1129.7,594.7h-7.9v-8.5H1005v8.5h-7.9v7.9h-8.6v183.9h8.6v7.2h7.9v7h116.7v-7h7.9v-7.2h8.2V602.5h-8.2&#10;&#9;&#9;&#9;&#9;V594.7z M1124,777.9h-10.1v8.2h-101v-8.2h-10.5V610.4h10.5v-9.8h101v9.8h10.1V777.9z" style="fill: rgb(255, 255, 255);" transform="matrix(1, 0, 0, 1, -890.3016357421876, -524.4457397460938)"/><path class="st1" d="M1112.1,618h-3.5v-5.1h-90v5.1h-3.9v3.9h-5.1v57.1h5.1v3.9h3.9v5.1h90v-5.1h3.5v-3.9h5.1v-57.1h-5.1V618z&#10;&#9;&#9;&#9;&#9; M1108.2,675.1h-3.9v3.9h-81.9v-3.9h-3.9v-49.4h3.9v-3.9h81.9v3.9h3.9V675.1z" style="fill: rgb(255, 255, 255);" transform="matrix(1, 0, 0, 1, -890.3016357421876, -524.4457397460938)"/><path class="st1" d="M1059.6,721.6h-11.3v-11.2h-4.6v-4.3h-15v4.3h-4.6v11.2h-11.3v4.7h-4.3v15h4.3v4.2h11.3v11.7h4.6v4.3h15&#10;&#9;&#9;&#9;&#9;v-4.3h4.6v-11.7h11.3v-4.2h4.3v-15h-4.3V721.6z M1055.2,737.1h-7h-4.2h-4.2v15.8h-7.4v-15.8h-4.2h-4.2h-7V730h7h4.2h4.2v-15.3&#10;&#9;&#9;&#9;&#9;h7.4V730h4.2h4.2h7V737.1z" style="fill: rgb(255, 255, 255);" transform="matrix(1, 0, 0, 1, -890.3016357421876, -524.4457397460938)"/><path class="st1" d="M1114.3,711.8h-2.8v-2.8h-11.1v2.8h-2.9v2.8h-2.6v11.1h2.6v2.8h2.9v2.7h11.1v-2.7h2.8v-2.8h2.8v-11.1h-2.8&#10;&#9;&#9;&#9;&#9;V711.8z M1112.8,724h-3v2.9h-7.7V724h-2.8v-7.7h2.8v-3h7.7v3h3V724z" style="fill: rgb(255, 255, 255);" transform="matrix(1, 0, 0, 1, -890.3016357421876, -524.4457397460938)"/><path class="st0" d="M1099.5,746.1h-2.8v-2.8h-11.1v2.8h-2.9v2.8h-2.6V760h2.6v2.8h2.9v2.7h11.1v-2.7h2.8V760h2.8v-11.1h-2.8&#10;&#9;&#9;&#9;V746.1z M1097.9,758.3h-3v2.9h-7.7v-2.9h-2.8v-7.7h2.8v-3h7.7v3h3V758.3z" style="fill: rgb(98, 68, 226);" transform="matrix(1, 0, 0, 1, -890.3016357421876, -524.4457397460938)"/><path class="st1" d="M1099.5,742.2h-2.8v-2.8h-11.1v2.8h-2.9v2.8h-2.6v11.1h2.6v2.8h2.9v2.7h11.1v-2.7h2.8v-2.8h2.8V745h-2.8&#10;&#9;&#9;&#9;V742.2z M1097.9,754.4h-3v2.9h-7.7v-2.9h-2.8v-7.7h2.8v-3h7.7v3h3V754.4z" style="fill: rgb(255, 255, 255);" transform="matrix(1, 0, 0, 1, -890.3016357421876, -524.4457397460938)"/>
</svg>