<?xml version="1.0" encoding="utf-8"?>
<svg id="master-artboard" viewBox="0 0 352.67864990234375 358.2020568847656" version="1.1" xmlns="http://www.w3.org/2000/svg" x="0px" y="0px" style="enable-background:new 0 0 1400 980;" width="352.67864990234375px" height="358.2020568847656px"><rect id="ee-background" x="0" y="0" width="352.67864990234375" height="358.2020568847656" style="fill: white; fill-opacity: 0; pointer-events: none;"/>


<g transform="matrix(1, 0, 0, 1, -160.16007804870605, -164.87067413330078)">
			<path d="M 286.899994 325.700012 H 320.799995 V 348.800013 H 286.899994 V 325.700012 Z" class="st10" style="fill: none;"/>
			<path d="M 356.20001220703125 348.79998779296875 L 390.1000061035156 348.79998779296875 L 390.1000061035156 344.5 L 390.1000061035156 325.70001220703125 L 356.20001220703125 325.70001220703125 Z" class="st10" style="fill: none;"/>
		</g>
<g transform="matrix(3.2079741954803467, 0, 0, 3.2079741954803467, -1915.2598876953125, -122.5837261612634)"><g id="g-3" transform="matrix(1, 0, 0, 1, 0, 0)">
	<g id="g-4">
		<path class="st0" d="M652,46c27.6,0,50,22.4,50,50s-22.4,50-50,50s-50-22.4-50-50S624.4,46,652,46z" style="fill: rgb(135, 54, 153); fill-opacity: 0.68;"/>
	</g>
</g></g><path d="M 114.5855484008789 141.92108154296875" style="fill: rgb(255, 255, 255); fill-opacity: 1; stroke: rgb(0, 0, 0); stroke-opacity: 1; stroke-width: 0; paint-order: fill;"/><g transform="matrix(1.1520450115203857, 0, 0, 1.1520450115203857, -383.93831452040604, -205.8689815722048)"><g transform="matrix(1, 0, 0, 1, 2.842170943040401e-14, 7.105427357601002e-15)"><g transform="matrix(1, 0, 0, 1, 2.842170943040401e-14, 3.645084234449314e-12)">
		<path class="st3" d="M516.1,299.7l-36.8-17l-74.8,40.5v82.9H430v-57.8h40.7v57.8h45.4h59l-1.3-79.8L516.1,299.7z M530.5,383.6&#10;&#9;&#9;&#9;h-14.4h-14.4v-23.9h14.4h14.4V383.6z" style="fill: rgb(255, 255, 255);"/>
		<path d="M 523.5 279.70001220703125 L 523.5 239.8000030517578 L 516.0999755859375 239.8000030517578 L 510.6000061035156 239.8000030517578 L 510.6000061035156 273.79998779296875 L 482.20001220703125 260.79998779296875 L 479.70001220703125 259.6000061035156 L 477.3999938964844 260.8999938964844 L 381 313 L 381 323.6000061035156 L 480.1000061035156 270 L 516.0999755859375 286.6000061035156 L 597.5999755859375 324 L 597.5999755859375 313.79998779296875 Z" class="st3" style="fill: rgb(255, 255, 255);"/>
	</g></g></g></svg>