<?xml version="1.0" encoding="utf-8"?>
<svg id="master-artboard" viewBox="0 0 352.67864990234375 358.2020568847656" version="1.1" xmlns="http://www.w3.org/2000/svg" x="0px" y="0px" style="enable-background:new 0 0 1400 980;" width="352.67864990234375px" height="358.2020568847656px"><rect id="ee-background" x="0" y="0" width="352.67864990234375" height="358.2020568847656" style="fill: white; fill-opacity: 0; pointer-events: none;"/>


<g transform="matrix(1, 0, 0, 1, -160.16007804870605, -164.87067413330078)">
			<path d="M 286.899994 325.700012 H 320.799995 V 348.800013 H 286.899994 V 325.700012 Z" class="st10" style="fill: none;"/>
			<path d="M 356.20001220703125 348.79998779296875 L 390.1000061035156 348.79998779296875 L 390.1000061035156 344.5 L 390.1000061035156 325.70001220703125 L 356.20001220703125 325.70001220703125 Z" class="st10" style="fill: none;"/>
		</g>
<g transform="matrix(3.2079741954803467, 0, 0, 3.2079741954803467, -1915.2598876953125, -122.5837261612634)"><g id="g-3" transform="matrix(1, 0, 0, 1, 0, 0)">
	<g id="g-4">
		<path class="st0" d="M652,46c27.6,0,50,22.4,50,50s-22.4,50-50,50s-50-22.4-50-50S624.4,46,652,46z" style="fill: rgb(80, 73, 153); fill-opacity: 0.68;"/>
	</g>
</g></g><g transform="matrix(0.8015423861416904, 0, 0, 0.8015423861416904, -1126.3964229945434, -181.00470616514372)"><g transform="matrix(1, 0, 0, 1, 188.2860565185547, 8.966002464294434)">
			<path d="M 1422 340.29998779296875 L 1432 340.29998779296875 L 1432 350.29998779296875 L 1432 360.29998779296875 L 1442 360.29998779296875 L 1442 350.29998779296875 L 1442 340.29998779296875 L 1452 340.29998779296875 L 1462 340.29998779296875 L 1472 340.29998779296875 L 1472 330.29998779296875 L 1462 330.29998779296875 L 1452 330.29998779296875 L 1442 330.29998779296875 L 1432 330.29998779296875 L 1422 330.29998779296875 L 1412 330.29998779296875 L 1402 330.29998779296875 L 1402 340.29998779296875 L 1412 340.29998779296875 Z" fill="#CCCCCC" style="fill: rgb(255, 255, 255);"/>
			<path d="M 1482 350.29998779296875 L 1492 350.29998779296875 L 1492 340.29998779296875 L 1482 340.29998779296875 L 1472 340.29998779296875 L 1472 350.29998779296875 Z" fill="#CCCCCC" style="fill: rgb(255, 255, 255);"/>
			<path d="M 1402 350.29998779296875 L 1402 340.29998779296875 L 1392 340.29998779296875 L 1382 340.29998779296875 L 1382 350.29998779296875 L 1392 350.29998779296875 Z" fill="#CCCCCC" style="fill: rgb(255, 255, 255);"/>
			<path d="M 1502 370.29998779296875 L 1502 380.29998779296875 L 1502 390.29998779296875 L 1502 400.29998779296875 L 1502 410.29998779296875 L 1502 420.29998779296875 L 1502 430.29998779296875 L 1492 430.29998779296875 L 1482 430.29998779296875 L 1472 430.29998779296875 L 1472 440.29998779296875 L 1482 440.29998779296875 L 1492 440.29998779296875 L 1502 440.29998779296875 L 1502 450.29998779296875 L 1502 460.29998779296875 L 1502 470.29998779296875 L 1502 480.29998779296875 L 1502 490.29998779296875 L 1502 500.29998779296875 L 1502 510.29998779296875 L 1502 520.2999877929688 L 1512 520.2999877929688 L 1512 510.29998779296875 L 1512 500.29998779296875 L 1512 490.29998779296875 L 1512 480.29998779296875 L 1512 470.29998779296875 L 1512 460.29998779296875 L 1512 450.29998779296875 L 1512 440.29998779296875 L 1512 430.29998779296875 L 1512 420.29998779296875 L 1512 410.29998779296875 L 1512 400.29998779296875 L 1512 390.29998779296875 L 1512 380.29998779296875 L 1512 370.29998779296875 L 1512 360.29998779296875 L 1502 360.29998779296875 Z" fill="#CCCCCC" style="fill: rgb(255, 255, 255);"/>
			<path d="M 1372 500.29998779296875 L 1372 490.29998779296875 L 1372 480.29998779296875 L 1372 470.29998779296875 L 1372 460.29998779296875 L 1372 450.29998779296875 L 1372 440.29998779296875 L 1382 440.29998779296875 L 1392 440.29998779296875 L 1402 440.29998779296875 L 1402 430.29998779296875 L 1392 430.29998779296875 L 1382 430.29998779296875 L 1372 430.29998779296875 L 1372 420.29998779296875 L 1372 410.29998779296875 L 1372 400.29998779296875 L 1372 390.29998779296875 L 1372 380.29998779296875 L 1372 370.29998779296875 L 1372 360.29998779296875 L 1362 360.29998779296875 L 1362 370.29998779296875 L 1362 380.29998779296875 L 1362 390.29998779296875 L 1362 400.29998779296875 L 1362 410.29998779296875 L 1362 420.29998779296875 L 1362 430.29998779296875 L 1362 440.29998779296875 L 1362 450.29998779296875 L 1362 460.29998779296875 L 1362 470.29998779296875 L 1362 480.29998779296875 L 1362 490.29998779296875 L 1362 500.29998779296875 L 1362 510.29998779296875 L 1362 520.2999877929688 L 1372 520.2999877929688 L 1372 510.29998779296875 Z" fill="#CCCCCC" style="fill: rgb(255, 255, 255);"/>
			<path d="M 1492 350.299988 H 1502 V 360.299988 H 1492 V 350.299988 Z" fill="#CCCCCC" style="fill: rgb(255, 255, 255);"/>
			<path d="M 1372 350.299988 H 1382 V 360.299988 H 1372 V 350.299988 Z" fill="#CCCCCC" style="fill: rgb(255, 255, 255);"/>
			<path d="M 1452 540.2999877929688 L 1442 540.2999877929688 L 1432 540.2999877929688 L 1422 540.2999877929688 L 1412 540.2999877929688 L 1402 540.2999877929688 L 1402 550.2999877929688 L 1412 550.2999877929688 L 1422 550.2999877929688 L 1432 550.2999877929688 L 1442 550.2999877929688 L 1452 550.2999877929688 L 1462 550.2999877929688 L 1472 550.2999877929688 L 1472 540.2999877929688 L 1462 540.2999877929688 Z" fill="#CCCCCC" style="fill: rgb(255, 255, 255);"/>
			<path d="M 1472 530.2999877929688 L 1472 540.2999877929688 L 1482 540.2999877929688 L 1492 540.2999877929688 L 1492 530.2999877929688 L 1482 530.2999877929688 Z" fill="#CCCCCC" style="fill: rgb(255, 255, 255);"/>
			<path d="M 1392 530.2999877929688 L 1382 530.2999877929688 L 1382 540.2999877929688 L 1392 540.2999877929688 L 1402 540.2999877929688 L 1402 530.2999877929688 Z" fill="#CCCCCC" style="fill: rgb(255, 255, 255);"/>
			<path d="M 1442 380.29998779296875 L 1442 390.29998779296875 L 1442 400.29998779296875 L 1442 410.29998779296875 L 1452 410.29998779296875 L 1452 400.29998779296875 L 1452 390.29998779296875 L 1452 380.29998779296875 L 1452 370.29998779296875 L 1452 360.29998779296875 L 1442 360.29998779296875 L 1442 370.29998779296875 Z" fill="#CCCCCC" style="fill: rgb(255, 255, 255);"/>
			<path d="M 1432 390.29998779296875 L 1432 380.29998779296875 L 1432 370.29998779296875 L 1432 360.29998779296875 L 1422 360.29998779296875 L 1422 370.29998779296875 L 1422 380.29998779296875 L 1422 390.29998779296875 L 1422 400.29998779296875 L 1422 410.29998779296875 L 1432 410.29998779296875 L 1432 400.29998779296875 Z" fill="#CCCCCC" style="fill: rgb(255, 255, 255);"/>
			<path d="M 1452 440.29998779296875 L 1442 440.29998779296875 L 1442 430.29998779296875 L 1442 420.29998779296875 L 1442 410.29998779296875 L 1432 410.29998779296875 L 1432 420.29998779296875 L 1432 430.29998779296875 L 1432 440.29998779296875 L 1422 440.29998779296875 L 1412 440.29998779296875 L 1402 440.29998779296875 L 1402 450.29998779296875 L 1412 450.29998779296875 L 1422 450.29998779296875 L 1432 450.29998779296875 L 1442 450.29998779296875 L 1452 450.29998779296875 L 1462 450.29998779296875 L 1472 450.29998779296875 L 1472 440.29998779296875 L 1462 440.29998779296875 Z" fill="#CCCCCC" style="fill: rgb(255, 255, 255);"/>
			<path d="M 1492 520.299988 H 1502 V 530.299988 H 1492 V 520.299988 Z" fill="#CCCCCC" style="fill: rgb(255, 255, 255);"/>
			<path d="M 1372 520.299988 H 1382 V 530.299988 H 1372 V 520.299988 Z" fill="#CCCCCC" style="fill: rgb(255, 255, 255);"/>
		</g></g><path d="M 114.5855484008789 141.92108154296875" style="fill: rgb(255, 255, 255); fill-opacity: 1; stroke: rgb(0, 0, 0); stroke-opacity: 1; stroke-width: 0; paint-order: fill;"/></svg>