<?xml version="1.0" encoding="utf-8"?>
<svg id="master-artboard" viewBox="0 0 352.67864990234375 358.2020568847656" version="1.1" xmlns="http://www.w3.org/2000/svg" x="0px" y="0px" style="enable-background:new 0 0 1400 980;" width="352.67864990234375px" height="358.2020568847656px"><rect id="ee-background" x="0" y="0" width="352.67864990234375" height="358.2020568847656" style="fill: white; fill-opacity: 0; pointer-events: none;"/>


<g transform="matrix(1, 0, 0, 1, -160.16007804870605, -164.87067413330078)">
			<path d="M 286.899994 325.700012 H 320.799995 V 348.800013 H 286.899994 V 325.700012 Z" class="st10" style="fill: none;"/>
			<path d="M 356.20001220703125 348.79998779296875 L 390.1000061035156 348.79998779296875 L 390.1000061035156 344.5 L 390.1000061035156 325.70001220703125 L 356.20001220703125 325.70001220703125 Z" class="st10" style="fill: none;"/>
		</g><path class="st0" d="M423.1,278.9h-28.7h-22.2v-22.2h-67.4v22.2h-51.4v22.2h-18.2v22.4v2.2v23.1v2.2v20.9h51.6v21.8H271v14v10.6&#10;&#9;&#9;&#9;h10.6h23.1v-23.7h17v-23.1H336h2.5h17.4v23.1h16.3v16.3v7.4h7.4h26.3v-24.5h-15.2v-21.3v-0.5h51v-23.1v-4.3v-18.2v-0.5v-1.6v-23&#10;&#9;&#9;&#9;h-18.6V278.9z M320.8,348.8h-33.9v-23.1h33.9V348.8z M390.1,344.5v4.3h-33.9v-23.1h33.9V344.5z" style="fill: rgb(255, 255, 255); fill-opacity: 1;" transform="matrix(1, 0, 0, 1, -160.16007804870605, -164.87067413330078)"/><path d="M 429.6000061035156 417.29998779296875 L 408 417.29998779296875 L 408 420.29998779296875 L 408 441.1000061035156 L 428.79998779296875 441.1000061035156 L 441.70001220703125 441.1000061035156 L 441.70001220703125 429.5 L 441.70001220703125 423.3999938964844 L 441.70001220703125 417.29998779296875 L 435.70001220703125 417.29998779296875 Z" class="st0" style="fill: rgb(255, 255, 255);" transform="matrix(1, 0, 0, 1, -160.16007804870605, -164.87067413330078)"/><path d="M 235.199997 417.299988 H 268.899998 V 441.099987 H 235.199997 V 417.299988 Z" class="st0" style="fill: rgb(255, 255, 255);" transform="matrix(1, 0, 0, 1, -160.16007804870605, -164.87067413330078)"/><path d="M 338.5 418.20001220703125 L 345.29998779296875 418.20001220703125 L 356.29998779296875 418.20001220703125 L 356.29998779296875 395.8999938964844 L 338.5 395.8999938964844 L 336.70001220703125 395.8999938964844 L 323 395.8999938964844 L 320.6000061035156 395.8999938964844 L 320.6000061035156 418.20001220703125 L 336.70001220703125 418.20001220703125 Z" class="st0" style="fill: rgb(255, 255, 255);" transform="matrix(1, 0, 0, 1, -160.16007804870605, -164.87067413330078)"/><path d="M 286.899994 325.700012 H 320.799995 V 348.800013 H 286.899994 V 325.700012 Z" class="st2" style="fill: rgb(207, 115, 166);" transform="matrix(1, 0, 0, 1, -160.16007804870605, -164.87067413330078)"/><path d="M 356.20001220703125 348.79998779296875 L 390.1000061035156 348.79998779296875 L 390.1000061035156 344.5 L 390.1000061035156 325.70001220703125 L 356.20001220703125 325.70001220703125 Z" class="st2" style="fill: rgb(211, 118, 168);" transform="matrix(1, 0, 0, 1, -160.16007804870605, -164.87067413330078)"/>
<path class="st2" d="M338.5,189.5c-88.1,0-159.4,71.4-159.4,159.4c0,73.7,50,135.7,118,154c12.5,3.4,25.6,5.2,39.1,5.4&#10;&#9;&#9;&#9;c0.8,0,1.5,0,2.3,0c6.8,0,13.6-0.4,20.2-1.3c0.4,0,0.7-0.1,1.1-0.1c3.1-0.4,6.1-0.9,9.1-1.5c6.3-1.2,12.4-2.8,18.4-4.7&#10;&#9;&#9;&#9;c4-1.3,7.8-2.7,11.6-4.2c5.7-2.4,11.3-5,16.7-8c2.3-1.3,4.6-2.7,6.9-4.1c3.2-2,6.4-4.2,9.5-6.4c1.4-1,2.8-2.1,4.2-3.2&#10;&#9;&#9;&#9;c1-0.8,2.1-1.6,3.1-2.5c3.8-3.1,7.5-6.4,11-9.8c2.2-2.1,4.3-4.3,6.3-6.6c1.8-2,3.6-4.1,5.4-6.3c0.9-1.1,1.8-2.3,2.7-3.4&#10;&#9;&#9;&#9;c0.9-1.1,1.7-2.3,2.6-3.4c6.5-8.9,12.1-18.6,16.7-28.8c4.9-10.9,8.6-22.5,11-34.6c1.6-8.4,2.6-17,2.9-25.8c0-1.6,0.1-3.2,0.1-4.8&#10;&#9;&#9;&#9;C497.9,260.9,426.5,189.5,338.5,189.5z M268.9,441.1h-33.7v-23.8h33.7V441.1z M345.3,418.2h-6.9h-1.8h-16v-22.3h2.4h13.6h1.8h17.8&#10;&#9;&#9;&#9;v22.3H345.3z M441.7,423.4v6.1v11.6h-12.9H408v-20.8v-3h21.5h6.1h6V423.4z M441.7,301.1v23v1.6v0.5v18.2v4.3v23.1h-51v0.5v21.3&#10;&#9;&#9;&#9;h15.2v24.5h-26.3h-7.4v-6.4v-1v-16.3h-16.3v-23.1h-17.4H336h-14.3v23.1h-17v23.7h-23.1H271v-10.6v-14h15.8v-21.8h-51.6v-20.9v-2.2&#10;&#9;&#9;&#9;v-23.1v-2.2v-22.4h18.2v-22.2h51.4v-22.2h67.4v22.2h22.2h28.7v22.2H441.7z" style="fill: rgb(205, 66, 140); fill-opacity: 0.67;" transform="matrix(1, 0, 0, 1, -160.16007804870605, -164.87067413330078)"/></svg>